<svg xmlns="http://www.w3.org/2000/svg" viewBox="0 0 125 39" role="img" class="we-subscribe__image-apple-music-logo" aria-label="Appple Music"><path fill="#333" d="M112.095 21.487v-2.434c0-4.145 1.766-6.186 4.464-6.186h.09c2.2 0 4.02 1.813 4.02 4.017 0 .084-.01.167-.01.25H125v-.45c-.047-4.233-3.542-7.69-7.776-7.69-.232 0-.465.01-.697.03-5.642 0-9.02 3.705-9.02 10.017v2.45c0 6.31 3.34 9.97 9.003 9.97.262.03.525.04.788.04 4.148 0 7.59-3.35 7.7-7.5v-.47h-4.335c.006.09.008.17.008.26 0 2.106-1.73 3.838-3.83 3.838-.08 0-.16-.002-.24-.007-2.74 0-4.49-1.95-4.49-6.11v-.01zM98.357 31.03h4.524V9.44h-4.52v21.59zm-16.4-15.794a2.986 2.986 0 0 1 3.544-2.698 3.372 3.372 0 0 1 3.81 2.931h4.21c-.03-3.82-3.23-6.48-7.99-6.48-4.51 0-8.07 2.36-8.07 6.6-.02 3.12 2.39 5.76 5.5 6.03l3.19.73c2.16.49 3.25 1.2 3.25 2.67 0 1.674-1.34 2.814-3.85 2.814-1.99.33-3.9-1.03-4.24-3.02h-4.34c.065 3.065 2.094 6.622 8.366 6.622 5.275 0 8.537-2.6 8.537-6.847 0-3.93-2.63-5.458-5.76-6.137l-3.22-.737a2.885 2.885 0 0 1-2.904-2.48l-.013-.027zm-8.832 8.468V9.434H68.62V23.07c.004.084.007.167.007.25 0 2.312-1.903 4.215-4.215 4.215s-4.214-1.903-4.214-4.215c0-.083.002-.166.007-.25V9.434h-4.49v14.27c0 4.606 3.276 7.738 8.71 7.738 5.433 0 8.703-3.13 8.703-7.736h-.003zm-25.89 7.325h4.073V9.44H46.72l-5.885 13.39h-.14l-5.89-13.39h-4.62v21.59h4.025V17.046h.19l4.905 11.107h2.82l4.907-11.107h.19V31.03h.014zM17.64 9.1c-2.404-.177-4.44 1.36-5.574 1.36a36.308 36.308 0 0 0-4.813-1.282 7.137 7.137 0 0 0-6.033 3.696C-1.346 17.382.567 24.06 3.07 27.72c1.226 1.79 2.686 3.804 4.604 3.73 1.846-.074 2.545-1.207 4.777-1.207s2.87 1.207 4.83 1.17a6.276 6.276 0 0 0 4.47-3.62 16.338 16.338 0 0 0 2.02-4.195 6.506 6.506 0 0 1-3.92-5.96 6.675 6.675 0 0 1 3.148-5.605 6.806 6.806 0 0 0-5.332-2.93zm-1.472-2.41a6.53 6.53 0 0 0 1.516-4.7 6.513 6.513 0 0 0-4.293 2.23 6.228 6.228 0 0 0-1.54 4.557c1.69.02 3.29-.754 4.32-2.086h.01z"></path></svg>